<?xml version="1.0" encoding="UTF-8"?>
<svg width="72px" height="100px" viewBox="0 0 72 100" version="1.1" xmlns="http://www.w3.org/2000/svg" xmlns:xlink="http://www.w3.org/1999/xlink">
    <!-- Generator: sketchtool 47.1 (45422) - http://www.bohemiancoding.com/sketch -->
    <title>icon-three</title>
    <desc>Created with sketchtool.</desc>
    <defs></defs>
    <g id="Page-1" stroke="none" stroke-width="1" fill="none" fill-rule="evenodd">
        <g id="icon-three" fill="#000000">
            <path d="M39.76,37.1428571 C41.6533428,37.1428571 43.3099929,36.4285786 44.73,35 C46.1500071,33.5714214 46.86,31.9047714 46.86,30 C46.86,28.0952286 46.1500071,26.4285786 44.73,25 C43.3099929,23.5714214 41.6533428,22.8571429 39.76,22.8571429 L30.53,22.8571429 C28.4473229,22.8571429 26.74334,23.61904 25.418,25.1428571 C24.75533,25.9047657 24.0690036,26.7380907 23.359,27.6428571 C22.6489965,28.5476236 21.8680043,29.166665 21.016,29.5 C20.1639957,29.833335 18.6966771,30 16.614,30 L9.94,30 C7.38398722,30 5.37234067,29.500005 3.905,28.5 C2.43765933,27.499995 1.704,25.9523914 1.704,23.8571429 C1.704,22.9999957 1.9406643,21.7619129 2.414,20.1428571 C4.49667708,14.2380657 8.11764087,9.40478071 13.277,5.64285714 C18.4363591,1.88093357 24.1873016,0 30.53,0 L39.76,0 C45.156027,0 50.1259773,1.35712929 54.67,4.07142857 C59.2140227,6.78572786 62.8349865,10.4285486 65.533,15 C68.2310135,19.5714514 69.58,24.5714014 69.58,30 C69.58,36.7619386 67.544687,42.8094971 63.474,48.1428571 C65.8406785,51.0000143 67.68666,54.1666493 69.012,57.6428571 C70.33734,61.119065 71,64.7618857 71,68.5714286 C71,74.1905043 69.5800142,79.4285471 66.74,84.2857143 C63.8999858,89.1428814 60.0896906,92.9761764 55.309,95.7857143 C50.5283094,98.5952521 45.3453613,100 39.76,100 L30.53,100 C23.4299645,100 17.0636948,97.7857364 11.431,93.3571429 C5.79830517,88.9285493 2.08267566,83.2857486 0.284,76.4285714 C0.09466572,75.6666629 0,74.9523843 0,74.2857143 C0,72.6666586 0.52066146,71.3095293 1.562,70.2142857 C2.60333854,69.1190421 4.44932008,68.5714286 7.1,68.5714286 L14.768,68.5714286 C17.3240128,68.5714286 19.1699943,68.9523771 20.306,69.7142857 C21.4420057,70.4761943 22.1993314,71.1904729 22.578,71.8571429 C22.9566686,72.5238129 23.1933329,72.9047614 23.288,73 C24.0453371,74.2381014 25.08666,75.2380914 26.412,76 C27.73734,76.7619086 29.1099929,77.1428571 30.53,77.1428571 L39.76,77.1428571 C42.0320114,77.1428571 44.0199915,76.2857229 45.724,74.5714286 C47.4280085,72.8571343 48.28,70.8571543 48.28,68.5714286 C48.28,66.2857029 47.4280085,64.2857229 45.724,62.5714286 C44.0199915,60.8571343 42.0320114,60 39.76,60 L35.5,60 C33.9853258,60 32.6600057,59.4285771 31.524,58.2857143 C30.3879943,57.1428514 29.82,55.8095314 29.82,54.2857143 L29.82,42.8571429 C29.82,41.2380871 30.3879943,39.8809579 31.524,38.7857143 C32.6600057,37.6904707 33.9853258,37.1428571 35.5,37.1428571 L39.76,37.1428571 Z" id="3"></path>
        </g>
    </g>
</svg>