<?xml version="1.0" encoding="UTF-8"?>
<svg width="110px" height="86px" viewBox="0 0 110 86" version="1.1" xmlns="http://www.w3.org/2000/svg" xmlns:xlink="http://www.w3.org/1999/xlink">
    <!-- Generator: sketchtool 47.1 (45422) - http://www.bohemiancoding.com/sketch -->
    <title>icon-one</title>
    <desc>Created with sketchtool.</desc>
    <defs></defs>
    <g id="Page-1" stroke="none" stroke-width="1" fill="none" fill-rule="evenodd">
        <g id="icon-one" fill="#D8D8D8">
            <path d="M8,0 L103,0 L103,-8.8817842e-16 C107.418278,-1.69980292e-15 111,3.581722 111,8 L111,78 C111,82.418278 107.418278,86 103,86 L8,86 C3.581722,86 -3.47095419e-16,82.418278 -8.8817842e-16,78 L0,8 L-8.8817842e-16,8 C-1.42926142e-15,3.581722 3.581722,-7.65539184e-17 8,-8.8817842e-16 L8,0 Z M45.504,34.744 L47.856,37.096 C48.1920017,37.4320017 48.5979976,37.6 49.074,37.6 C49.5220022,37.6 49.9139983,37.4320017 50.25,37.096 L52.56,34.786 L52.56,51.88 C52.56,52.3280022 52.7279983,52.7199983 53.064,53.056 C53.4000017,53.3920017 53.7919978,53.56 54.24,53.56 L57.6,53.56 C58.0760024,53.56 58.4749984,53.3920017 58.797,53.056 C59.1190016,52.7199983 59.28,52.3280022 59.28,51.88 L59.28,26.68 C59.28,26.2039976 59.1190016,25.8050016 58.797,25.483 C58.4749984,25.1609984 58.0760024,25 57.6,25 L53.736,25 C53.5119989,25 53.2600014,25.0559994 52.98,25.168 C52.6999986,25.2800006 52.4760008,25.4199992 52.308,25.588 L45.504,32.35 C45.1679983,32.6860017 45,33.0779978 45,33.526 C45,34.0020024 45.1679983,34.4079983 45.504,34.744 Z" id="Combined-Shape"></path>
        </g>
    </g>
</svg>