<svg xmlns="http://www.w3.org/2000/svg" width="20" height="16" viewBox="0 0 20 16">
    <path fill="#4CACB7" fill-rule="nonzero" d="M19.584 1.932a8.056 8.056 0 0 1-2.305.632 4.026 4.026 0 0 0 1.764-2.22 8.027 8.027 0 0 1-2.548.974 4.014 4.014 0 0 0-6.84 3.662A11.398 11.398 0 0 1 1.38.784a4.002 4.002 0 0 0-.544 2.02c0 1.392.71 2.62 1.786 3.34a3.992 3.992 0 0 1-1.818-.502v.051a4.018 4.018 0 0 0 3.22 3.936 4.055 4.055 0 0 1-1.813.069 4.019 4.019 0 0 0 3.75 2.787 8.055 8.055 0 0 1-5.943 1.661 11.346 11.346 0 0 0 6.153 1.804c7.383 0 11.42-6.117 11.42-11.42 0-.174-.003-.346-.01-.52a8.152 8.152 0 0 0 2.002-2.078z"/>
</svg>
