<svg xmlns="http://www.w3.org/2000/svg" width="16" height="16" viewBox="0 0 16 16">
    <g fill="#4CACB7" fill-rule="nonzero">
        <path d="M11.84 9.194c-.032-.015-1.198-.59-1.406-.664a.807.807 0 0 0-.271-.06c-.158 0-.29.078-.393.232-.117.174-.47.586-.579.71-.014.015-.033.035-.045.035-.01 0-.19-.074-.245-.098-1.252-.544-2.201-1.85-2.332-2.071-.018-.032-.02-.046-.02-.046a.376.376 0 0 1 .07-.081c.063-.063.131-.146.198-.226l.094-.112c.097-.112.14-.2.19-.3l.026-.053a.544.544 0 0 0-.016-.512c-.028-.055-.52-1.244-.572-1.369-.126-.301-.293-.441-.524-.441l-.09.003c-.11.005-.706.084-.97.25-.28.176-.753.738-.753 1.727 0 .89.565 1.73.807 2.05l.033.047c.929 1.356 2.086 2.361 3.26 2.83 1.13.451 1.664.503 1.968.503.128 0 .23-.01.32-.019l.058-.005c.39-.035 1.248-.479 1.443-1.021.153-.427.194-.893.092-1.063-.07-.115-.191-.173-.344-.246z"/>
        <path d="M8.142 0C3.809 0 .283 3.499.283 7.8c0 1.39.373 2.752 1.078 3.944L.01 15.726a.208.208 0 0 0 .26.264l4.151-1.319a7.912 7.912 0 0 0 3.72.927C12.475 15.598 16 12.1 16 7.8 16 3.499 12.475 0 8.142 0zm0 13.974a6.226 6.226 0 0 1-3.425-1.021.208.208 0 0 0-.177-.025l-2.08.661.671-1.98a.208.208 0 0 0-.029-.19A6.09 6.09 0 0 1 1.917 7.8c0-3.404 2.793-6.174 6.225-6.174 3.432 0 6.224 2.77 6.224 6.175 0 3.404-2.792 6.174-6.224 6.174z"/>
    </g>
</svg>
