<svg xmlns="http://www.w3.org/2000/svg" width="102" height="100" viewBox="0 0 102 100">
    <g fill="#000" fill-rule="nonzero">
        <path d="M32.693.126c-4.682 0-8.491 3.809-8.491 8.49 0 4.682 3.809 8.491 8.49 8.491 4.682 0 8.491-3.809 8.491-8.49 0-4.682-3.808-8.49-8.49-8.49zm0 13.029a4.543 4.543 0 0 1-4.538-4.539 4.543 4.543 0 0 1 4.538-4.538 4.543 4.543 0 0 1 4.538 4.538 4.543 4.543 0 0 1-4.538 4.539zM71.194.126c-4.682 0-8.49 3.809-8.49 8.49 0 4.682 3.808 8.491 8.49 8.491 4.681 0 8.49-3.809 8.49-8.49 0-4.682-3.808-8.49-8.49-8.49zm0 13.029a4.543 4.543 0 0 1-4.538-4.539 4.543 4.543 0 0 1 4.538-4.538 4.543 4.543 0 0 1 4.538 4.538 4.543 4.543 0 0 1-4.538 4.539z"/>
        <path d="M99.21 95.921H89.08l-.09-42.334a1.976 1.976 0 0 0-1.977-1.972h-.004a1.977 1.977 0 0 0-1.972 1.98l.09 42.326H72.86l-.09-46.252a1.97 1.97 0 0 0-.033-.347v-2.236c0-1.96-.296-3.878-.88-5.727a14.26 14.26 0 0 1 6.889-1.771h.032c3.735 0 7.247 1.404 9.889 3.956 2.634 2.543 4.088 5.924 4.096 9.522l.031 8.827a1.976 1.976 0 0 0 1.977 1.969h.007a1.977 1.977 0 0 0 1.969-1.984l-.032-8.823c-.01-4.675-1.893-9.062-5.302-12.355a17.949 17.949 0 0 0-6.405-3.983 9.346 9.346 0 0 0 2.646-6.56c-.01-5.182-4.23-9.39-9.41-9.39h-.021c-5.19.01-9.402 4.241-9.392 9.43a9.35 9.35 0 0 0 2.771 6.65c.059.058.12.113.18.17-.51.21-1.01.444-1.5.701-2.411-4.31-6.348-7.515-11.006-9.086a10.377 10.377 0 0 0 3.24-7.536c0-5.74-4.67-10.408-10.408-10.408-5.74 0-10.409 4.669-10.409 10.408 0 3.115 1.377 5.912 3.552 7.821-4.294 1.649-7.917 4.711-10.194 8.75a18.045 18.045 0 0 0-2.134-.935 9.378 9.378 0 0 0 2.668-6.556c0-5.189-4.222-9.411-9.412-9.411s-9.411 4.222-9.411 9.411A9.383 9.383 0 0 0 19.707 37C13.258 39.65 8.72 45.865 8.72 53.093v8.827a1.976 1.976 0 0 0 3.953 0v-8.827c0-7.447 6.275-13.505 13.988-13.505 2.409 0 4.735.589 6.81 1.711a18.972 18.972 0 0 0-.898 5.787V95.921H20.655V53.608a1.976 1.976 0 0 0-3.953 0v42.313H1.976a1.976 1.976 0 0 0 0 3.953H99.21a1.976 1.976 0 0 0 0-3.953zM78.23 24.72h.012a5.465 5.465 0 0 1 5.459 5.447 5.424 5.424 0 0 1-1.59 3.863 5.424 5.424 0 0 1-3.857 1.608h-.012a5.423 5.423 0 0 1-3.852-1.591 5.423 5.423 0 0 1-1.607-3.856 5.465 5.465 0 0 1 5.447-5.471zM26.178 35.636a5.465 5.465 0 0 1-5.459-5.46 5.465 5.465 0 0 1 5.46-5.458 5.465 5.465 0 0 1 5.458 5.459 5.465 5.465 0 0 1-5.459 5.459zM52.107 14.64a6.463 6.463 0 0 1 6.455 6.455 6.463 6.463 0 0 1-6.455 6.456 6.463 6.463 0 0 1-6.456-6.456 6.463 6.463 0 0 1 6.456-6.455zM41.625 95.92h-5.1V71.585a9.971 9.971 0 0 0 5.1 1.897v22.439zM62 45.694a1.976 1.976 0 0 0-1.976 1.976v48.251h-5.684V72.06a1.976 1.976 0 0 0-3.953 0V95.92h-4.808V47.67a1.976 1.976 0 0 0-3.952 0v21.84c-2.878-.388-5.1-2.766-5.1-5.633V47.086c0-2.023.396-3.992 1.177-5.853l.005-.011c2.485-5.903 8.35-9.717 14.946-9.717 6.628 0 12.506 3.84 14.975 9.782a15.04 15.04 0 0 1 1.154 5.799v16.791c0 2.77-2.073 5.082-4.808 5.586V47.67A1.976 1.976 0 0 0 62 45.694zm1.976 50.227V73.455a9.962 9.962 0 0 0 4.884-1.928l.048 24.394h-4.932z"/>
        <circle cx="94.771" cy="69.658" r="1.976"/>
        <circle cx="10.696" cy="69.658" r="1.976"/>
    </g>
</svg>
