<?xml version="1.0" encoding="UTF-8"?>
<svg width="48px" height="50px" viewBox="0 0 48 50" version="1.1" xmlns="http://www.w3.org/2000/svg" xmlns:xlink="http://www.w3.org/1999/xlink">
    <!-- Generator: sketchtool 47.1 (45422) - http://www.bohemiancoding.com/sketch -->
    <title>icon-two</title>
    <desc>Created with sketchtool.</desc>
    <defs></defs>
    <g id="Page-1" stroke="none" stroke-width="1" fill="none" fill-rule="evenodd">
        <g id="icon-two">
            <circle id="Oval" fill="#D8D8D8" cx="24" cy="25" r="24"></circle>
            <path d="M12.3287671,15.1030479 C13.2054838,13.2510793 14.4999914,11.7709296 16.2123288,10.6625544 C17.9246661,9.55417927 19.7808119,9 21.7808219,9 C22.4931542,9 23.2191744,9.08417913 23.9589041,9.25253991 C25.9315167,9.67344187 27.6438284,10.5994123 29.0958904,12.030479 C30.5479525,13.4615456 31.506847,15.1731879 31.9726027,17.1654572 C32.0547949,17.6705395 32.0958904,18.1896442 32.0958904,18.7227866 C32.0958904,20.2380337 31.7123326,21.7813177 30.9452055,23.3526851 C30.1780784,24.9240524 28.9589125,26.3971871 27.2876712,27.7721335 L23.3835616,31.2656023 L31.3561644,31.2656023 C31.8219201,31.2656023 32.2123272,31.4269457 32.5273973,31.7496372 C32.8424673,32.0723287 33,32.4721795 33,32.9492017 L33,36.3164006 C33,36.7934228 32.8424673,37.1932737 32.5273973,37.5159652 C32.2123272,37.8386567 31.8219201,38 31.3561644,38 L14.7945205,38 C14.3287648,38 13.9383577,37.8386567 13.6232877,37.5159652 C13.3082176,37.1932737 13.1506849,36.7934228 13.1506849,36.3164006 L13.1506849,32.5283019 C13.1506849,32.3038208 13.2123282,32.0512835 13.3356164,31.7706821 C13.4589047,31.4900808 13.6027389,31.279633 13.7671233,31.1393324 L22.6849315,22.9738752 C23.5068534,22.300432 24.1506826,21.5778945 24.6164384,20.8062409 C25.0821941,20.0345873 25.3150685,19.3120498 25.3150685,18.6386067 C25.3150685,17.9932237 25.0958926,17.4460593 24.6575342,16.9970972 C24.0821889,16.3797744 23.3972642,15.9869384 22.6027397,15.8185776 C22.2191762,15.7624574 21.9452063,15.7343977 21.7808219,15.7343977 C20.7397208,15.7343977 19.8219218,16.1132038 19.0273973,16.8708273 L18.4931507,17.586357 C18.1917793,17.9791989 17.9315079,18.259796 17.7123288,18.4281567 C17.4931496,18.5965175 17.1917827,18.6806967 16.8082192,18.6806967 C16.5068478,18.6806967 16.2602749,18.652637 16.0684932,18.5965167 L14.4657534,18.2177068 C14.1369847,18.1054663 13.8356178,18.0212872 13.5616438,17.9651669 C12.5205427,17.6003852 12,17.0532209 12,16.3236575 C12,16.014996 12.1095879,15.6081302 12.3287671,15.1030479 Z" id="2" fill="#000000"></path>
        </g>
    </g>
</svg>