<svg xmlns="http://www.w3.org/2000/svg" width="16" height="18" viewBox="0 0 16 18">
    <g fill="#000" fill-rule="nonzero">
        <path d="M7.99 8.705c1.202 0 2.228-.425 3.078-1.275.85-.85 1.276-1.876 1.276-3.077 0-1.202-.426-2.228-1.276-3.078C10.218.425 9.192 0 7.991 0 6.789 0 5.763.425 4.913 1.275c-.85.85-1.275 1.876-1.275 3.078 0 1.201.425 2.227 1.275 3.077.85.85 1.876 1.275 3.078 1.275z"/>
        <path d="M15.93 13.302c-.026-.382-.079-.794-.158-1.236a9.611 9.611 0 0 0-.3-1.23 5.833 5.833 0 0 0-.488-1.105 3.981 3.981 0 0 0-.703-.918 2.96 2.96 0 0 0-.969-.606 3.407 3.407 0 0 0-1.264-.227c-.068 0-.226.081-.476.244-.249.162-.53.343-.844.544-.314.2-.722.381-1.224.544a4.893 4.893 0 0 1-1.514.243c-.506 0-1.01-.081-1.513-.243-.502-.163-.91-.344-1.224-.544-.314-.2-.595-.382-.844-.544-.25-.163-.408-.244-.476-.244-.461 0-.883.076-1.264.227a2.959 2.959 0 0 0-.97.606c-.264.253-.498.56-.702.918a5.842 5.842 0 0 0-.488 1.105c-.12.378-.22.788-.3 1.23-.08.442-.132.854-.159 1.236-.026.381-.04.773-.04 1.173 0 .907.277 1.623.828 2.148.552.525 1.285.788 2.2.788h9.906c.915 0 1.647-.263 2.2-.788.551-.525.827-1.241.827-2.148 0-.4-.013-.792-.04-1.173z"/>
    </g>
</svg>
