<svg xmlns="http://www.w3.org/2000/svg" width="18" height="12" viewBox="0 0 18 12">
    <path fill="#4CACB7" fill-rule="nonzero" d="M17.527 1.942c-.21-.913-.957-1.587-1.855-1.687-2.13-.238-4.284-.239-6.429-.238-2.145-.001-4.3 0-6.43.238-.898.1-1.644.774-1.854 1.687C.659 3.242.656 4.662.656 6c0 1.339 0 2.758.3 4.058.21.913.956 1.586 1.855 1.687 2.129.238 4.284.24 6.429.238 2.145.001 4.3 0 6.428-.238.899-.1 1.645-.774 1.856-1.687.299-1.3.3-2.72.3-4.058 0-1.339.002-2.758-.297-4.058zM7.025 8.665V2.987l5.458 2.848-5.458 2.83z"/>
</svg>
