<svg xmlns="http://www.w3.org/2000/svg" width="21" height="15" viewBox="0 0 21 15">
    <path fill="#4CACB7" fill-rule="nonzero" d="M15.784 4.345H1.481L4.488.902a.55.55 0 0 0-.042-.764.523.523 0 0 0-.75.043L.31 4.06a1.264 1.264 0 0 0 0 1.657l3.388 3.877a.524.524 0 0 0 .749.044.55.55 0 0 0 .042-.765L1.481 5.43h14.303c2.291 0 4.155 1.904 4.155 4.244s-1.864 4.243-4.155 4.243h-2.526a.536.536 0 0 0-.53.542c0 .3.238.542.53.542h2.526C18.66 15 21 12.61 21 9.673c0-2.938-2.34-5.328-5.216-5.328z"/>
</svg>
