<svg xmlns="http://www.w3.org/2000/svg" width="16" height="16" viewBox="0 0 16 16">
    <path fill="#CCC" fill-rule="nonzero" d="M13.657 2.343A7.948 7.948 0 0 0 8 0a7.948 7.948 0 0 0-5.657 2.343A7.948 7.948 0 0 0 0 8c0 2.137.832 4.146 2.343 5.657A7.948 7.948 0 0 0 8 16a7.95 7.95 0 0 0 3.114-.629l-.385-.911A7.018 7.018 0 0 1 .99 8 7.018 7.018 0 0 1 8 .99 7.018 7.018 0 0 1 15.01 8c0 1.693-1.04 2.464-2.007 2.464-.966 0-2.006-.77-2.006-2.464A3 3 0 0 0 8 5.003 3 3 0 0 0 5.003 8 3 3 0 0 0 8 10.997c.978 0 1.849-.472 2.396-1.2.14.284.316.54.529.763a2.843 2.843 0 0 0 2.078.894c.793 0 1.53-.317 2.079-.894.6-.631.918-1.516.918-2.56a7.948 7.948 0 0 0-2.343-5.657zM8 10.007A2.01 2.01 0 0 1 5.993 8c0-1.107.9-2.007 2.007-2.007 1.107 0 2.007.9 2.007 2.007A2.01 2.01 0 0 1 8 10.007z"/>
</svg>
