<?xml version="1.0" encoding="UTF-8"?>
<svg width="19px" height="18px" viewBox="0 0 19 18" version="1.1" xmlns="http://www.w3.org/2000/svg" xmlns:xlink="http://www.w3.org/1999/xlink">
    <!-- Generator: sketchtool 47.1 (45422) - http://www.bohemiancoding.com/sketch -->
    <title>star</title>
    <desc>Created with sketchtool.</desc>
    <defs></defs>
    <g id="Page-1" stroke="none" stroke-width="1" fill="none" fill-rule="evenodd">
        <g id="star" fill="#4A4A4A">
            <path d="M9.02523487,15.6487185 L4.73381335,17.8837147 C4.23513836,18.1434274 3.61835247,17.9534977 3.35618351,17.4594947 C3.25178645,17.2627802 3.21576162,17.0374593 3.25368607,16.8184144 L4.07327465,12.0846166 C4.13003144,11.7567995 4.02032021,11.4223065 3.7798946,11.1901452 L0.308061658,7.83765091 C-0.0953748863,7.44808185 -0.103629925,6.80828791 0.289623514,6.40863115 C0.446219096,6.24948573 0.651406375,6.1459171 0.873419972,6.11395888 L5.67137509,5.42330708 C6.00363511,5.37547921 6.29086284,5.1687512 6.43945404,4.87049334 L8.5851648,0.563541778 C8.83450229,0.0630621506 9.44618629,-0.142422502 9.95139924,0.10457896 C10.1525777,0.202936238 10.3154152,0.364248165 10.4147027,0.563541778 L12.5604135,4.87049334 C12.7090047,5.1687512 12.9962324,5.37547921 13.3284924,5.42330708 L18.1264476,6.11395888 C18.6839832,6.19421452 19.0702797,6.70701196 18.989265,7.25932403 C18.9570046,7.47925759 18.8524564,7.68252247 18.6918059,7.83765091 L15.2199729,11.1901452 C14.9795473,11.4223065 14.8698361,11.7567995 14.9265929,12.0846166 L15.7461815,16.8184144 C15.8414199,17.3684948 15.4684803,17.8909057 14.9131975,17.9852518 C14.692081,18.022821 14.4646292,17.9871337 14.2660542,17.8837147 L9.97463266,15.6487185 C9.67745026,15.4939443 9.32241727,15.4939443 9.02523487,15.6487185 Z" id="Star"></path>
        </g>
    </g>
</svg>