<svg xmlns="http://www.w3.org/2000/svg" width="133" height="32" viewBox="0 0 133 32"><g fill="#000" fill-rule="nonzero"><path d="M41.352 21.542c-1.21-2.206-3.274-3.084-5.67-3.084-3.488 0-6.264 2.467-6.264 6.643 0 4.246 2.61 6.642 6.382 6.642 2.42 0 4.484-1.328 5.622-3.345l-2.657-1.352c-.593 1.424-1.494 1.85-2.633 1.85-1.97 0-2.87-1.636-2.87-3.795s.759-3.796 2.87-3.796c.57 0 1.708.309 2.372 1.732l2.848-1.495zm6.782-.237c2.112 0 3.013 1.637 3.013 3.653 0 2.302-.901 3.938-3.013 3.938-2.111 0-3.013-1.636-3.013-3.795s.902-3.796 3.013-3.796zm0-2.847c-3.938 0-6.713 2.396-6.713 6.643 0 4.246 2.775 6.642 6.713 6.642s6.714-2.396 6.714-6.642c0-4.247-2.776-6.643-6.714-6.643zm7.473 12.953h3.7v-7.852c0-1.139.475-2.112 1.97-2.112 1.423 0 1.802.83 1.802 2.064v7.9h3.701v-7.757c0-1.282.64-2.207 1.874-2.207 1.4 0 1.898.807 1.898 2.586v7.378h3.701v-9.632c0-2.894-2.657-3.321-3.89-3.321-1.472 0-2.848.45-4.057 1.684-.831-1.115-1.898-1.684-3.345-1.684-1.14 0-2.705.332-3.654 1.447V18.79h-3.7v12.621zm19.83 0h3.701v-7.852c0-1.139.475-2.112 1.969-2.112 1.424 0 1.803.83 1.803 2.064v7.9h3.701v-7.757c0-1.282.64-2.207 1.874-2.207 1.4 0 1.898.807 1.898 2.586v7.378h3.7v-9.632c0-2.894-2.657-3.321-3.89-3.321-1.471 0-2.847.45-4.057 1.684-.83-1.115-1.897-1.684-3.345-1.684-1.138 0-2.704.332-3.653 1.447V18.79h-3.701v12.621zm26.117-10.106c2.111 0 3.013 1.637 3.013 3.653 0 2.302-.902 3.938-3.013 3.938-2.111 0-3.013-1.636-3.013-3.795s.902-3.796 3.013-3.796zm0-2.847c-3.938 0-6.714 2.396-6.714 6.643 0 4.246 2.776 6.642 6.714 6.642 3.939 0 6.714-2.396 6.714-6.642 0-4.247-2.775-6.643-6.714-6.643zm7.71 12.953h3.7v-7.852c0-1.139.475-2.112 1.97-2.112 1.423 0 1.803.83 1.803 2.064v7.9h3.7v-9.323c0-1.898-.83-3.63-3.819-3.63-1.139 0-2.704.332-3.654 1.447V18.79h-3.7v12.621zm23.532-11.126c-1.709-1.139-3.63-1.827-5.575-1.827-2.563 0-5.339 1.234-5.339 4.413 0 4.484 7.473 2.918 7.473 4.887 0 1.14-1.399 1.281-2.016 1.281-1.685 0-2.847-.687-3.986-1.779l-2.301 1.993c1.85 1.708 3.416 2.49 6.168 2.49 2.751 0 5.694-1.186 5.694-4.507 0-4.72-7.473-2.941-7.473-5.1 0-.64.664-.972 1.589-.972 1.163 0 2.752.474 3.487 1.352l2.279-2.23zM41.352 7.022c-1.21-2.206-3.274-3.084-5.67-3.084-3.488 0-6.264 2.467-6.264 6.643 0 4.246 2.61 6.643 6.382 6.643 2.42 0 4.484-1.329 5.622-3.345l-2.657-1.353c-.593 1.424-1.494 1.85-2.633 1.85-1.97 0-2.87-1.636-2.87-3.795 0-2.16.759-3.796 2.87-3.796.57 0 1.708.308 2.372 1.732l2.848-1.495zm.902 9.869h3.701V9.584c0-1.4.878-1.78 3.084-2.04l.404-.048-.024-3.273c-1.305.095-2.657.57-3.464 1.328v-1.28h-3.7v12.62zm19.757-5.551c-.023-3.89-1.59-7.402-6.192-7.402-3.843 0-6.192 2.562-6.192 7.023 0 3.558 2.278 6.263 6.192 6.263 2.824 0 4.84-1.115 6.12-3.488l-2.775-1.447c-1.068 1.518-1.708 2.23-3.084 2.23-1.186 0-2.728-.76-2.752-3.18h8.683zm-8.73-2.277c.166-1.661 1.447-2.42 2.515-2.42 1.067 0 2.396.57 2.514 2.42h-5.029zM70.5 11.625c0 1.921-1.09 2.894-2.538 2.894-.901 0-1.732-.427-1.732-1.423 0-1.02.854-1.376 1.78-1.637l2.49-.712v.878zm3.56-4.033c-.024-2.847-2.183-3.654-5.623-3.654-1.708 0-5.077.332-5.196 3.962H66.8c.19-1.257.759-1.684 1.945-1.684.997 0 1.756.403 1.756 1.352v1.044l-1.352.19c-4.033.57-6.477 1.637-6.477 4.673 0 2.42 1.803 3.749 4.223 3.749 1.328 0 3.179-.64 3.795-1.637h.048c.023.427.095.877.237 1.305h3.416c-.308-.783-.332-1.756-.332-2.634V7.592zm8.703-3.085h-2.207V.854h-3.7v3.653h-1.803v2.278h1.802v6.643c0 1.826.451 3.795 3.607 3.795.806 0 1.898-.094 2.372-.142v-2.918c-.19.023-.712.07-1.115.07-.665 0-1.162-.26-1.162-1.257v-6.19h2.206v-2.28zm1.393-.237v12.621h3.701V4.271h-3.7zm3.701-1.423V0h-3.7v2.847h3.7zm4.981 14.044h3.724l4.318-12.62h-3.938l-2.183 8.92h-.047L92.53 4.27h-3.961zm19.994-5.551c-.024-3.89-1.59-7.402-6.192-7.402-3.844 0-6.192 2.562-6.192 7.023 0 3.558 2.277 6.263 6.192 6.263 2.823 0 4.84-1.115 6.12-3.488l-2.775-1.447c-1.068 1.518-1.709 2.23-3.084 2.23-1.186 0-2.729-.76-2.752-3.18h8.683zm-8.73-2.277c.166-1.661 1.446-2.42 2.514-2.42 1.067 0 2.396.57 2.515 2.42h-5.03zM13.86 3.726c-3.807 0-7.158 1.41-9.748 4.036C1.447 10.466 0 13.97 0 17.625c0 3.693 1.409 7.12 4.075 9.786 2.665 2.666 6.13 4.113 9.786 4.113 3.655 0 7.196-1.447 9.938-4.15 2.59-2.552 3.96-5.941 3.96-9.749 0-3.77-1.37-7.197-3.998-9.825-2.665-2.665-6.093-4.074-9.9-4.074zm.039 2.513c3.122 0 5.902 1.18 8.072 3.351 2.133 2.133 3.275 4.95 3.275 8.035 0 3.122-1.104 5.864-3.237 7.959-2.247 2.208-5.14 3.389-8.11 3.389-3.01 0-5.827-1.18-7.997-3.351-2.17-2.171-3.39-5.027-3.39-7.997 0-3.008 1.22-5.864 3.39-8.073 2.132-2.17 4.874-3.313 7.997-3.313z"/><path d="M13.72 15.315c-.786-1.431-2.125-2.001-3.68-2.001-2.263 0-4.065 1.6-4.065 4.311 0 2.756 1.694 4.311 4.142 4.311 1.57 0 2.91-.862 3.649-2.17l-1.725-.878c-.385.923-.97 1.2-1.709 1.2-1.278 0-1.862-1.062-1.862-2.463 0-1.4.492-2.463 1.862-2.463.37 0 1.109.2 1.54 1.124l1.847-.97zm8.018 0c-.786-1.431-2.125-2.001-3.68-2.001-2.263 0-4.065 1.6-4.065 4.311 0 2.756 1.694 4.311 4.142 4.311 1.57 0 2.91-.862 3.649-2.17l-1.725-.878c-.384.923-.97 1.2-1.709 1.2-1.277 0-1.863-1.062-1.863-2.463 0-1.4.493-2.463 1.863-2.463.37 0 1.109.2 1.54 1.124l1.848-.97z"/></g></svg>