<svg xmlns="http://www.w3.org/2000/svg" width="16" height="16" viewBox="0 0 16 16"><g fill="#4CACB7" fill-rule="nonzero"><path d="M11.57.032H4.43A4.407 4.407 0 0 0 .032 4.43v7.14a4.403 4.403 0 0 0 4.398 4.398h7.14a4.407 4.407 0 0 0 4.398-4.398V4.43A4.403 4.403 0 0 0 11.57.032zm2.99 11.538a2.987 2.987 0 0 1-2.984 2.983h-7.14a2.987 2.987 0 0 1-2.983-2.983V4.43a2.987 2.987 0 0 1 2.984-2.983h7.14a2.987 2.987 0 0 1 2.982 2.983v7.14z"/><path d="M8 3.895A4.11 4.11 0 0 0 3.895 8 4.11 4.11 0 0 0 8 12.105 4.11 4.11 0 0 0 12.105 8 4.107 4.107 0 0 0 8 3.895zm0 6.801a2.69 2.69 0 1 1 .001-5.38A2.69 2.69 0 0 1 8 10.695zm4.284-8a1.048 1.048 0 0 0-1.039 1.039 1.048 1.048 0 0 0 1.039 1.039c.274 0 .541-.108.733-.305.191-.192.306-.46.306-.734a1.044 1.044 0 0 0-1.039-1.039z"/></g></svg>