<svg xmlns="http://www.w3.org/2000/svg" width="101" height="100" viewBox="0 0 101 100"><g fill="#000" fill-rule="nonzero"><path d="M98.431 34.764h-6.937c.72-2.8 1.088-5.68 1.088-8.571V11.535h5.85a1.96 1.96 0 1 0 0-3.922H92.1a4.857 4.857 0 0 0-4.368-2.742c-.8 0-1.553.194-2.218.537a5.03 5.03 0 0 0-5.44-1.387 5.008 5.008 0 0 0-4.434-2.687 5.002 5.002 0 0 0-4.145 2.204 5.05 5.05 0 0 0-2.016-.417 5.085 5.085 0 0 0-5.044 4.492H42.933a1.96 1.96 0 0 0-1.96 1.961v.7l-2.091-.572V2.024a1.96 1.96 0 1 0-3.922 0V8.64a34.442 34.442 0 0 0-8.334-1.028H11.731v-5.61a1.96 1.96 0 1 0-3.921 0V8.22a4.854 4.854 0 0 0-2.506 4.244c0 .799.194 1.553.537 2.218a5.03 5.03 0 0 0-1.387 5.44 5.008 5.008 0 0 0-2.687 4.434c0 1.723.876 3.245 2.205 4.145a5.05 5.05 0 0 0-.417 2.015 5.086 5.086 0 0 0 4.255 5.011V57.5a1.96 1.96 0 0 0 1.96 1.961h.7l-.507 1.854H1.96a1.96 1.96 0 1 0 0 3.921h6.937a34.468 34.468 0 0 0-1.088 8.571v14.658H1.96a1.96 1.96 0 1 0 0 3.921h6.332a4.857 4.857 0 0 0 4.369 2.743c.798 0 1.552-.194 2.217-.537a5.03 5.03 0 0 0 5.441 1.387 5.008 5.008 0 0 0 4.434 2.687 5.002 5.002 0 0 0 4.145-2.204 5.05 5.05 0 0 0 2.015.416 5.085 5.085 0 0 0 5.044-4.492h21.502a1.96 1.96 0 0 0 1.961-1.96v-.7l2.09.572v7.7a1.96 1.96 0 1 0 3.922 0v-6.64a34.442 34.442 0 0 0 8.334 1.029H88.66v5.61a1.96 1.96 0 1 0 3.921 0V91.78a4.854 4.854 0 0 0 1.969-6.462 5.03 5.03 0 0 0 1.387-5.44 5.008 5.008 0 0 0 2.687-4.434 5.002 5.002 0 0 0-2.205-4.145 5.05 5.05 0 0 0 .417-2.015 5.086 5.086 0 0 0-4.255-5.011V42.499a1.96 1.96 0 0 0-1.96-1.96h-.7l.507-1.854h8.002a1.96 1.96 0 1 0 0-3.921zm-32.07-9.85a1.96 1.96 0 0 0 1.96-1.96V8.2a1.159 1.159 0 0 1 2.315 0v4.487a1.96 1.96 0 1 0 3.922 0v-6.35a1.083 1.083 0 0 1 2.163 0v6.122a1.96 1.96 0 1 0 3.921 0V8.771a1.12 1.12 0 0 1 2.238 0v3.84a1.96 1.96 0 1 0 3.922 0v-2.89a.93.93 0 0 1 1.859 0v16.472c0 2.722-.365 5.434-1.084 8.06l-1.722 6.286H68.322v-.886a8.06 8.06 0 0 0-1.09-4.045l-4.554-7.84a2.697 2.697 0 0 1-.364-1.353v-5.21a4.05 4.05 0 0 1 2.086-3.54v5.29a1.96 1.96 0 0 0 1.961 1.96zm-57.727 6.96a1.159 1.159 0 0 1 0-2.315h4.487a1.96 1.96 0 1 0 0-3.922H6.77a1.083 1.083 0 0 1 0-2.162h6.122a1.96 1.96 0 1 0 0-3.922H9.204a1.12 1.12 0 0 1-1.12-1.12 1.12 1.12 0 0 1 1.12-1.118h3.84a1.96 1.96 0 1 0 0-3.922h-2.89a.93.93 0 0 1 0-1.858h16.472c2.723 0 5.435.364 8.06 1.083l6.286 1.722v17.534h-.885a8.06 8.06 0 0 0-4.045 1.09l-7.84 4.553a2.69 2.69 0 0 1-1.353.365h-5.21a4.05 4.05 0 0 1-3.54-2.087h5.289a1.96 1.96 0 1 0 0-3.921H8.634zm25.397 43.21a1.96 1.96 0 0 0-1.96 1.962V91.8a1.159 1.159 0 0 1-2.315 0v-4.487a1.96 1.96 0 1 0-3.922 0v6.35a1.083 1.083 0 0 1-2.163 0V87.54a1.96 1.96 0 1 0-3.921 0v3.688a1.12 1.12 0 0 1-1.12 1.12 1.12 1.12 0 0 1-1.119-1.12v-3.84a1.96 1.96 0 1 0-3.921 0v2.89a.93.93 0 0 1-1.859 0V73.807c0-2.722.365-5.434 1.084-8.06l1.722-6.286H32.07v.885a8.06 8.06 0 0 0 1.09 4.045l4.554 7.84c.239.41.365.879.365 1.354v5.21a4.05 4.05 0 0 1-2.087 3.54v-5.29a1.96 1.96 0 0 0-1.96-1.96zm23.428-13.77H43.277a1.96 1.96 0 1 0 0 3.922H55.5v23.23H35.991V86.52C39.44 85.644 42 82.513 42 78.795v-5.21c0-1.166-.31-2.316-.895-3.324l-4.554-7.84a4.136 4.136 0 0 1-.56-2.074v-.886h.93a1.96 1.96 0 0 0 1.96-1.96V45.195a1.96 1.96 0 1 0-3.921 0V55.54H11.731V35.795h2.183c.876 3.45 4.007 6.008 7.724 6.008h5.21a6.63 6.63 0 0 0 3.324-.895l7.84-4.554a4.136 4.136 0 0 1 2.075-.559h.885v.93a1.96 1.96 0 0 0 1.96 1.96h13.724a1.96 1.96 0 1 0 0-3.921H44.894v-23.23H64.4v1.946c-3.449.876-6.008 4.007-6.008 7.725v5.21c0 1.166.31 2.316.896 3.324l4.554 7.84c.365.629.559 1.346.559 2.074v.886h-.93a1.96 1.96 0 0 0-1.96 1.96v13.915a1.96 1.96 0 1 0 3.921 0V44.46h23.229v19.745h-2.182c-.876-3.45-4.008-6.008-7.725-6.008h-5.21c-1.166 0-2.316.31-3.324.895l-7.84 4.554a4.136 4.136 0 0 1-2.075.559h-.885v-.93a1.96 1.96 0 0 0-1.96-1.96zm34.3 6.812a1.159 1.159 0 0 1 0 2.315H87.27a1.96 1.96 0 1 0 0 3.922h6.35a1.083 1.083 0 0 1 0 2.162H87.5a1.96 1.96 0 1 0 0 3.922h3.689a1.12 1.12 0 0 1 0 2.238h-3.84a1.96 1.96 0 1 0 0 3.922h2.89a.93.93 0 0 1 0 1.858H73.765c-2.723 0-5.435-.364-8.06-1.083L59.42 85.66V68.126h.885a8.06 8.06 0 0 0 4.045-1.09l7.84-4.553a2.69 2.69 0 0 1 1.353-.365h5.21a4.05 4.05 0 0 1 3.54 2.087h-5.289a1.96 1.96 0 1 0 0 3.921h14.754z"/><circle cx="30.351" cy="51.208" r="1.961"/><circle cx="30.351" cy="44.669" r="1.961"/><circle cx="51.525" cy="69.575" r="1.961"/><circle cx="44.988" cy="69.575" r="1.961"/><circle cx="70.037" cy="48.433" r="1.961"/><circle cx="70.037" cy="54.971" r="1.961"/><circle cx="49.171" cy="31.053" r="1.961"/><circle cx="55.708" cy="31.053" r="1.961"/></g></svg>