<svg width="110" height="86" viewBox="0 0 110 86" version="1.1" xmlns="http://www.w3.org/2000/svg"><title>icon-one</title><g id="Page-1" stroke="none" stroke-width="1" fill="none" fill-rule="evenodd"><g id="icon-one" fill="#D8D8D8"><path d="M8 0h95a8 8 0 0 1 8 8v70a8 8 0 0 1-8 8H8a8 8 0 0 1-8-8V8a8 8 0 0 1 8-8zm37.504 34.744l2.352 2.352a1.66 1.66 0 0 0 1.218.504c.448 0 .84-.168 1.176-.504l2.31-2.31V51.88c0 .448.168.84.504 1.176.336.336.728.504 1.176.504h3.36c.476 0 .875-.168 1.197-.504.322-.336.483-.728.483-1.176v-25.2c0-.476-.161-.875-.483-1.197A1.626 1.626 0 0 0 57.6 25h-3.864c-.224 0-.476.056-.756.168-.28.112-.504.252-.672.42l-6.804 6.762c-.336.336-.504.728-.504 1.176 0 .476.168.882.504 1.218z" id="Combined-Shape"/></g></g></svg>