<svg width="72" height="100" viewBox="0 0 72 100" version="1.1" xmlns="http://www.w3.org/2000/svg"><title>icon-three</title><g id="Page-1" stroke="none" stroke-width="1" fill="none" fill-rule="evenodd"><g id="icon-three" fill="#000"><path d="M39.76 37.143c1.893 0 3.55-.714 4.97-2.143 1.42-1.429 2.13-3.095 2.13-5 0-1.905-.71-3.571-2.13-5-1.42-1.429-3.077-2.143-4.97-2.143h-9.23c-2.083 0-3.787.762-5.112 2.286a64.354 64.354 0 0 0-2.059 2.5c-.71.905-1.491 1.524-2.343 1.857-.852.333-2.32.5-4.402.5H9.94c-2.556 0-4.568-.5-6.035-1.5-1.467-1-2.201-2.548-2.201-4.643 0-.857.237-2.095.71-3.714 2.083-5.905 5.704-10.738 10.863-14.5C18.437 1.88 24.187 0 30.53 0h9.23c5.396 0 10.366 1.357 14.91 4.071C59.214 6.786 62.835 10.43 65.533 15c2.698 4.571 4.047 9.571 4.047 15 0 6.762-2.035 12.81-6.106 18.143a33.5 33.5 0 0 1 5.538 9.5C70.337 61.119 71 64.762 71 68.57c0 5.62-1.42 10.858-4.26 15.715-2.84 4.857-6.65 8.69-11.431 11.5-4.78 2.81-9.964 4.214-15.549 4.214h-9.23c-7.1 0-13.466-2.214-19.099-6.643C5.798 88.93 2.083 83.286.284 76.43A8.909 8.909 0 0 1 0 74.286c0-1.62.52-2.976 1.562-4.072 1.041-1.095 2.887-1.643 5.538-1.643h7.668c2.556 0 4.402.381 5.538 1.143 1.136.762 1.893 1.476 2.272 2.143.379.667.615 1.048.71 1.143.757 1.238 1.799 2.238 3.124 3 1.325.762 2.698 1.143 4.118 1.143h9.23c2.272 0 4.26-.857 5.964-2.572 1.704-1.714 2.556-3.714 2.556-6 0-2.285-.852-4.285-2.556-6C44.02 60.857 42.032 60 39.76 60H35.5c-1.515 0-2.84-.571-3.976-1.714-1.136-1.143-1.704-2.476-1.704-4V42.857c0-1.619.568-2.976 1.704-4.071 1.136-1.096 2.461-1.643 3.976-1.643h4.26z" id="3"/></g></g></svg>