<svg xmlns="http://www.w3.org/2000/svg" width="16" height="17" viewBox="0 0 16 17"><path fill="#CCC" fill-rule="nonzero" d="M11.113 10.758a6.398 6.398 0 0 0 1.71-4.35A6.417 6.417 0 0 0 6.416 0a6.417 6.417 0 0 0-6.41 6.409 6.417 6.417 0 0 0 6.409 6.408c1.44 0 2.764-.474 3.837-1.276l4.766 4.765a.573.573 0 0 0 .406.174c.145 0 .3-.058.406-.174a.59.59 0 0 0 0-.821l-4.717-4.727zm-9.947-4.35A5.253 5.253 0 0 1 6.415 1.16a5.253 5.253 0 0 1 5.249 5.249c0 2.9-2.35 5.248-5.249 5.248A5.253 5.253 0 0 1 1.166 6.41z"/></svg>