<svg xmlns="http://www.w3.org/2000/svg" width="36" height="24" viewBox="0 0 36 24"><path fill="#000" fill-rule="nonzero" d="M35.149.7c.002-.014.006-.028.007-.042a.617.617 0 0 0-.005-.131c-.002-.011 0-.022-.002-.033a.587.587 0 0 0-.058-.17l-.016-.027c-.002 0-.002-.003-.002-.004L35.07.289l-.012-.02a.578.578 0 0 0-.13-.134c-.01-.008-.023-.013-.035-.02a.561.561 0 0 0-.138-.068c-.022-.007-.043-.01-.066-.015a.565.565 0 0 0-.199-.006c-.015.002-.03 0-.045.003L.467 7.051a.586.586 0 0 0-.155 1.091l9.736 5.136 1.707 9.475v.022a.55.55 0 0 0 .011.207.565.565 0 0 0 .065.157c.006.01.006.02.012.03l.007.007c.008.012.018.02.027.031a.598.598 0 0 0 .089.092c.005.004.009.01.015.014.008.007.018.009.027.014a.596.596 0 0 0 .112.058c.016.006.03.013.047.018a.586.586 0 0 0 .162.026h.002l.007-.001h.03a.581.581 0 0 0 .416-.184l6.486-4.323 6.79 4.413a.588.588 0 0 0 .503.065.586.586 0 0 0 .365-.354L35.121.808a.536.536 0 0 0 .02-.062l.004-.025.004-.02zm-6.78 3.736L14.324 14.763c-.022.017-.04.038-.06.058-.008.007-.016.013-.022.02a.59.59 0 0 0-.035.042l-.028.043a.599.599 0 0 0-.054.11c-.002.008-.007.014-.01.021 0 .003-.002.004-.003.006l-1.61 5.232-1.275-7.078 17.142-8.78zM13.41 21.421l1.596-5.27 2.485 1.614.71.462-2.414 1.61-2.376 1.584zM30.466 2.048L10.578 12.234 2.301 7.868l28.164-5.82zm-4.382 19.906l-9.017-5.861-1.366-.888 17.65-12.979-7.268 19.728z"/></svg>