<svg xmlns="http://www.w3.org/2000/svg" width="77" height="100" viewBox="0 0 77 100"><g fill="#000" fill-rule="nonzero"><circle cx="38.497" cy="97.85" r="1.956"/><circle cx="38.497" cy="60.682" r="1.956"/><circle cx="2.143" cy="36.558" r="1.956"/><circle cx="74.271" cy="36.558" r="1.956"/><circle cx="69.791" cy="18.735" r="1.956"/><circle cx="58.909" cy="6.568" r="1.956"/><circle cx="38.169" cy="1.956" r="1.956"/><circle cx="18.843" cy="6.568" r="1.956"/><circle cx="7.19" cy="18.735" r="1.956"/><path d="M58.49 16.373c-5.469-5.392-12.704-8.305-20.398-8.196-7.391.103-14.37 3.053-19.653 8.307-5.281 5.255-8.268 12.219-8.408 19.61a28.487 28.487 0 0 0 9.337 21.638 12.598 12.598 0 0 1 4.107 9.318v3.912a6.9 6.9 0 0 0 3.042 5.719v9.472a6.435 6.435 0 0 0 6.428 6.428H44.05a6.435 6.435 0 0 0 6.429-6.428v-9.472a6.9 6.9 0 0 0 3.04-5.719V67.05c0-3.542 1.514-6.953 4.152-9.357a28.538 28.538 0 0 0 9.298-21.047c0-7.68-3.011-14.88-8.48-20.273zm-11.922 69.78a2.52 2.52 0 0 1-2.517 2.517H32.945a2.52 2.52 0 0 1-2.517-2.517v-8.29h16.14v8.29zm8.469-31.351a16.616 16.616 0 0 0-5.428 12.248v3.912a2.994 2.994 0 0 1-2.99 2.991h-6.166v-6.458a1.956 1.956 0 0 0-3.91 0v6.458h-6.165a2.995 2.995 0 0 1-2.991-2.991V67.05c0-4.653-1.965-9.105-5.39-12.214a24.577 24.577 0 0 1-8.055-18.668c.248-13.095 11.107-23.898 24.205-24.08l.353-.003c6.499 0 12.61 2.504 17.243 7.073 4.718 4.652 7.316 10.863 7.316 17.488a24.62 24.62 0 0 1-8.022 18.156z"/><path d="M38.498 17.472c-10.524 0-19.086 8.562-19.086 19.086a1.956 1.956 0 0 0 3.91 0c0-8.368 6.808-15.175 15.176-15.175s15.175 6.807 15.175 15.175a1.956 1.956 0 0 0 3.911 0c0-10.524-8.562-19.086-19.086-19.086z"/><path d="M51.065 49.544c-.878-3.944-3.67-7.141-7.29-8.744a6.998 6.998 0 0 0 1.427-4.242 7.043 7.043 0 0 0-7.034-7.034 7.043 7.043 0 0 0-7.035 7.034 7 7 0 0 0 1.605 4.467c-3.385 1.666-5.968 4.752-6.808 8.52-.162.73.106 1.489.691 1.955a18.886 18.886 0 0 0 11.876 4.145c4.363 0 8.47-1.433 11.877-4.145a1.956 1.956 0 0 0 .69-1.956zm-12.897-16.11a3.127 3.127 0 0 1 3.123 3.124 3.127 3.127 0 0 1-3.123 3.124 3.127 3.127 0 0 1-3.123-3.124 3.127 3.127 0 0 1 3.123-3.123zm.33 18.3c-3.03 0-5.905-.87-8.39-2.528 1.286-3.315 4.632-5.613 8.39-5.613 3.758 0 7.104 2.298 8.39 5.613a14.995 14.995 0 0 1-8.39 2.528z"/></g></svg>