<svg width="48" height="50" viewBox="0 0 48 50" version="1.1" xmlns="http://www.w3.org/2000/svg"><title>icon-two</title><g id="Page-1" stroke="none" stroke-width="1" fill="none" fill-rule="evenodd"><g id="icon-two"><circle id="Oval" fill="#D8D8D8" cx="24" cy="25" r="24"/><path d="M12.329 15.103a10.58 10.58 0 0 1 3.883-4.44C17.925 9.554 19.781 9 21.781 9c.712 0 1.438.084 2.178.253 1.973.42 3.685 1.346 5.137 2.777a10.39 10.39 0 0 1 2.877 5.135c.082.506.123 1.025.123 1.558 0 1.515-.384 3.058-1.15 4.63-.768 1.571-1.987 3.044-3.658 4.42l-3.904 3.493h7.972c.466 0 .856.16 1.171.484.315.322.473.722.473 1.2v3.366c0 .477-.158.877-.473 1.2a1.571 1.571 0 0 1-1.17.484H14.794c-.466 0-.857-.161-1.172-.484-.315-.323-.472-.723-.472-1.2v-3.788c0-.224.061-.477.185-.757.123-.28.267-.491.431-.632l8.918-8.165c.822-.674 1.466-1.396 1.931-2.168.466-.771.7-1.494.7-2.167 0-.646-.22-1.193-.658-1.642a3.845 3.845 0 0 0-2.055-1.178 6.52 6.52 0 0 0-.822-.085c-1.041 0-1.96.38-2.754 1.137l-.534.715c-.301.393-.561.674-.78.842-.22.169-.521.253-.905.253-.301 0-.548-.028-.74-.084l-1.602-.38a7.458 7.458 0 0 0-.904-.252C12.52 17.6 12 17.053 12 16.324c0-.309.11-.716.329-1.221z" id="2" fill="#000"/></g></g></svg>