<svg width="19" height="18" viewBox="0 0 19 18" version="1.1" xmlns="http://www.w3.org/2000/svg"><title>star</title><g id="Page-1" stroke="none" stroke-width="1" fill="none" fill-rule="evenodd"><g id="star" fill="#4A4A4A"><path d="M9.025 15.649l-4.291 2.235c-.499.26-1.116.07-1.378-.425a1.002 1.002 0 0 1-.102-.64l.82-4.734a1.005 1.005 0 0 0-.294-.895L.308 7.838a1.004 1.004 0 0 1-.018-1.43 1.02 1.02 0 0 1 .583-.294l4.798-.69a1.02 1.02 0 0 0 .768-.554L8.585.564a1.025 1.025 0 0 1 1.83 0L12.56 4.87c.149.299.436.505.768.553l4.798.691a1.007 1.007 0 1 1 .565 1.724L15.22 11.19c-.24.232-.35.567-.293.895l.82 4.733a1.012 1.012 0 0 1-.834 1.167 1.029 1.029 0 0 1-.647-.101l-4.291-2.235a1.029 1.029 0 0 0-.95 0z" id="Star"/></g></g></svg>